<?xml version="1.0" encoding="UTF-8"?>
<svg xmlns="http://www.w3.org/2000/svg"
     xmlns:xlink="http://www.w3.org/1999/xlink"
     version="1.2"
     width="160mm" height="160mm" viewBox="0 0 160 160"
     stroke="none"
     fill="#000000"
     stroke-width="0.3"
     font-size="3.88"
>
<defs>
  <marker id="arrow" markerWidth="15" markerHeight="7" refX="5" refY="3.5" orient="auto" markerUnits="strokeWidth">
    <path d="M0,0 L15,3.5 L0,7 z" stroke="context-stroke" fill="context-stroke"/>
  </marker>
</defs>
<g fill="#000000" fill-opacity="0.000" id="img-29f8f0a7-1">
  <g transform="translate(80,80)">
    <path d="M-80,-80 L80,-80 80,80 -80,80  z" class="primitive"/>
  </g>
</g>
<g stroke-width="1.34" stroke="#D3D3D3" id="img-29f8f0a7-2">
</g>
<g stroke-width="1.34" stroke="#D3D3D3" id="img-29f8f0a7-3">
  <g transform="translate(97.49,97.49)">
    <path fill="none" d="M-12.36,-12.36 L12.36,12.36 " class="primitive"/>
  </g>
  <g transform="translate(62.07,62.07)">
    <path fill="none" d="M12.52,12.52 L-12.52,-12.52 " class="primitive"/>
  </g>
  <g transform="translate(130.89,130.89)">
    <path fill="none" d="M-10.5,-10.5 L10.5,10.5 " class="primitive"/>
  </g>
  <g transform="translate(28.81,28.81)">
    <path fill="none" d="M10.2,10.2 L-10.2,-10.2 " class="primitive"/>
  </g>
</g>
<g fill="#D3D3D3" id="img-29f8f0a7-4">
</g>
<g fill="#D3D3D3" id="img-29f8f0a7-5">
</g>
<g font-size="4" fill="#000000" id="img-29f8f0a7-6">
</g>
<g stroke-width="0" stroke="#000000" stroke-opacity="0.000" fill="#40E0D0" id="img-29f8f0a7-7">
  <g transform="translate(79.86,79.86)">
    <circle cx="0" cy="0" r="7.16" class="primitive"/>
  </g>
  <g transform="translate(115.12,115.12)">
    <circle cx="0" cy="0" r="7.16" class="primitive"/>
  </g>
  <g transform="translate(44.28,44.28)">
    <circle cx="0" cy="0" r="7.16" class="primitive"/>
  </g>
  <g transform="translate(146.67,146.67)">
    <circle cx="0" cy="0" r="7.16" class="primitive"/>
  </g>
  <g transform="translate(13.33,13.33)">
    <circle cx="0" cy="0" r="7.16" class="primitive"/>
  </g>
</g>
<g font-family="Helvetica" font-size="4" fill="#000000" id="img-29f8f0a7-8">
</g>
<g font-family="Helvetica" font-size="4" fill="#000000" id="img-29f8f0a7-9">
  <g transform="translate(80,0)">
    <g class="primitive">
      <text text-anchor="middle" dy="0.35em"></text>
    </g>
  </g>
</g>
</svg>
